<svg id="Layer_1" data-name="Layer 1" xmlns="http://www.w3.org/2000/svg" viewBox="0 0 231.33 76">
  <title>epiarc-launch-logo</title>
  <g>
    <path d="M91.12,54.12V22.69h18v4.17h-13v8.69h9.07v4.19H96.08v9.92H109.9v4.46Z" fill="#1d1d1b"/>
    <path d="M113.51,54.12V22.69h10.73q5.85,0,8.19,3.36a8.13,8.13,0,0,1,1.35,4.75,9.88,9.88,0,0,1-3,7.72,8.5,8.5,0,0,1-5.85,2h-6.43V54.12ZM128.82,31c0-2.76-2.31-4.13-6.93-4.13h-3.42V36.3h3.42A8.32,8.32,0,0,0,127,34.92,4.58,4.58,0,0,0,128.82,31Z" fill="#1d1d1b"/>
    <path d="M136.89,54.12V22.69h5V54.12Z" fill="#1d1d1b"/>
    <path d="M144,54.12l9-31.43h5.44l9,31.43h-4.79L159.93,45h-8.24l-2.59,9.11Zm8.92-13.28h5.88L155.82,30.7Z" fill="#1d1d1b"/>
    <path d="M169.91,54.12V22.69h10.56q7.29,0,9.21,5.21a8.79,8.79,0,0,1,.56,3.13,11.3,11.3,0,0,1-.36,2.95,9.32,9.32,0,0,1-1.07,2.46,6.85,6.85,0,0,1-4.58,3.14L190,54.12H185l-5.44-13.63h-4.64V54.12Zm5-17.82h5.25a5.56,5.56,0,0,0,3.63-1.18,4.76,4.76,0,0,0,1.53-3.88c0-2.92-2.31-4.38-6.95-4.38h-3.46Z" fill="#1d1d1b"/>
    <path d="M192.25,42.3a23.66,23.66,0,0,1-.33-3.95,25.59,25.59,0,0,1,.31-3.92,24,24,0,0,1,.93-3.76,15.09,15.09,0,0,1,1.6-3.39,12.92,12.92,0,0,1,2.25-2.7,9.53,9.53,0,0,1,6.7-2.47q5.08,0,8,5.08a16.21,16.21,0,0,1,1.93,5.08v0l-4.32,1.17a13.16,13.16,0,0,0-.79-3.25,11.26,11.26,0,0,0-.91-1.72,4.93,4.93,0,0,0-1-1.15,4.45,4.45,0,0,0-2.92-1.06A5.09,5.09,0,0,0,201,27,6.17,6.17,0,0,0,199,28.94a11.94,11.94,0,0,0-1.24,2.79,22.41,22.41,0,0,0-.92,6.65c0,6.52,1.55,10.43,4.65,11.7a5.56,5.56,0,0,0,2.12.41,6.23,6.23,0,0,0,2-.29,4.78,4.78,0,0,0,1.48-.75,5.7,5.7,0,0,0,1.07-1.12A6.84,6.84,0,0,0,209,47a9.17,9.17,0,0,0,.45-1.34,9.33,9.33,0,0,0,.31-2.24l4.62.64A17.08,17.08,0,0,1,211.07,51a9.1,9.1,0,0,1-7.4,3.65q-5.47,0-8.82-5.21A18.8,18.8,0,0,1,192.25,42.3Z" fill="#1d1d1b"/>
  </g>
  <g>
    <line x1="7.41" y1="38.5" x2="73.06" y2="38.5" fill="none" stroke="#1d1d1b" stroke-miterlimit="10" stroke-width="4.22"/>
    <circle cx="40.53" cy="38.5" r="3.08" fill="#fff" stroke="#1d1d1b" stroke-miterlimit="10" stroke-width="1.75"/>
    <g>
      <path d="M7.41,37.56C7.41,55.51,23,70,42.17,70" fill="none" stroke="#1d1d1b" stroke-miterlimit="10" stroke-width="4.67"/>
      <path d="M7.41,37.56C7.41,49.38,23.34,59,43,59" fill="none" stroke="#1d1d1b" stroke-miterlimit="10" stroke-width="4.58"/>
      <path d="M43,48.1c-15.65,0-35.62-5.38-35.62-10.54" fill="none" stroke="#1d1d1b" stroke-miterlimit="10" stroke-width="4.22"/>
      <path d="M43.61,70a3.09,3.09,0,1,0-3.09,3.09A3.08,3.08,0,0,0,43.61,70Z" fill="#fff" stroke="#1d1d1b" stroke-miterlimit="10" stroke-width="1.75"/>
      <path d="M43.61,59A3.09,3.09,0,1,0,40.52,62,3.08,3.08,0,0,0,43.61,59Z" fill="#fff" stroke="#1d1d1b" stroke-miterlimit="10" stroke-width="1.75"/>
      <path d="M43.61,48.1a3.09,3.09,0,1,0-3.09,3.08A3.08,3.08,0,0,0,43.61,48.1Z" fill="#fff" stroke="#1d1d1b" stroke-miterlimit="10" stroke-width="1.75"/>
      <circle cx="7.99" cy="38.5" r="3.08" fill="#fff" stroke="#1d1d1b" stroke-miterlimit="10" stroke-width="1.75"/>
    </g>
    <g>
      <path d="M73.64,37.56C73.64,55.51,58.1,70,38.88,70" fill="none" stroke="#1d1d1b" stroke-miterlimit="10" stroke-width="4.67"/>
      <path d="M73.64,37.56C73.64,49.38,57.71,59,38,59" fill="none" stroke="#1d1d1b" stroke-miterlimit="10" stroke-width="4.58"/>
      <path d="M38,48.1c15.65,0,35.62-5.38,35.62-10.54" fill="none" stroke="#1d1d1b" stroke-miterlimit="10" stroke-width="4.22"/>
      <path d="M37.44,70a3.09,3.09,0,1,1,3.09,3.09A3.08,3.08,0,0,1,37.44,70Z" fill="#fff" stroke="#1d1d1b" stroke-miterlimit="10" stroke-width="1.75"/>
      <path d="M37.44,59A3.09,3.09,0,1,1,40.53,62,3.08,3.08,0,0,1,37.44,59Z" fill="#fff" stroke="#1d1d1b" stroke-miterlimit="10" stroke-width="1.75"/>
      <path d="M37.44,48.1a3.09,3.09,0,1,1,3.09,3.08A3.08,3.08,0,0,1,37.44,48.1Z" fill="#fff" stroke="#1d1d1b" stroke-miterlimit="10" stroke-width="1.75"/>
      <path d="M70,38.5a3.08,3.08,0,1,0,3.08-3.08A3.08,3.08,0,0,0,70,38.5Z" fill="#fff" stroke="#1d1d1b" stroke-miterlimit="10" stroke-width="1.75"/>
    </g>
    <g>
      <path d="M7.41,39.44C7.41,21.49,23,7,42.17,7" fill="none" stroke="#1d1d1b" stroke-miterlimit="10" stroke-width="4.67"/>
      <path d="M7.41,39.44C7.41,27.62,23.34,18.05,43,18.05" fill="none" stroke="#1d1d1b" stroke-miterlimit="10" stroke-width="4.58"/>
      <path d="M43,28.9c-15.65,0-35.62,5.38-35.62,10.54" fill="none" stroke="#1d1d1b" stroke-miterlimit="10" stroke-width="4.22"/>
      <path d="M43.61,7a3.09,3.09,0,1,1-3.09-3.09A3.08,3.08,0,0,1,43.61,7Z" fill="#fff" stroke="#1d1d1b" stroke-miterlimit="10" stroke-width="1.75"/>
      <path d="M43.61,18.05A3.09,3.09,0,1,1,40.52,15,3.08,3.08,0,0,1,43.61,18.05Z" fill="#fff" stroke="#1d1d1b" stroke-miterlimit="10" stroke-width="1.75"/>
      <path d="M43.61,28.9a3.09,3.09,0,1,1-3.09-3.08A3.08,3.08,0,0,1,43.61,28.9Z" fill="#fff" stroke="#1d1d1b" stroke-miterlimit="10" stroke-width="1.75"/>
      <circle cx="7.99" cy="38.5" r="3.08" fill="#fff" stroke="#1d1d1b" stroke-miterlimit="10" stroke-width="1.75"/>
    </g>
    <g>
      <path d="M73.64,39.44C73.64,21.49,58.1,7,38.88,7" fill="none" stroke="#1d1d1b" stroke-miterlimit="10" stroke-width="4.67"/>
      <path d="M73.64,39.44c0-11.82-15.93-21.39-35.62-21.39" fill="none" stroke="#1d1d1b" stroke-miterlimit="10" stroke-width="4.58"/>
      <path d="M38,28.9c15.65,0,35.62,5.38,35.62,10.54" fill="none" stroke="#1d1d1b" stroke-miterlimit="10" stroke-width="4.22"/>
      <path d="M37.44,7a3.09,3.09,0,1,0,3.09-3.09A3.08,3.08,0,0,0,37.44,7Z" fill="#fff" stroke="#1d1d1b" stroke-miterlimit="10" stroke-width="1.75"/>
      <path d="M37.44,18.05A3.09,3.09,0,1,0,40.53,15,3.08,3.08,0,0,0,37.44,18.05Z" fill="#fff" stroke="#1d1d1b" stroke-miterlimit="10" stroke-width="1.75"/>
      <path d="M37.44,28.9a3.09,3.09,0,1,0,3.09-3.08A3.08,3.08,0,0,0,37.44,28.9Z" fill="#fff" stroke="#1d1d1b" stroke-miterlimit="10" stroke-width="1.75"/>
      <path d="M70,38.5a3.08,3.08,0,1,1,3.08,3.08A3.08,3.08,0,0,1,70,38.5Z" fill="#fff" stroke="#1d1d1b" stroke-miterlimit="10" stroke-width="1.75"/>
    </g>
  </g>
</svg>
