<svg id="Layer_1" data-name="Layer 1" xmlns="http://www.w3.org/2000/svg" viewBox="0 0 512.97 60.71"><defs><style>.cls-1{fill:#f0ac00;}.cls-2{fill:#6d7276;}</style></defs><title>singletrack-cmyk</title><polygon class="cls-1" points="1.04 55.55 0 60.71 511.93 60.71 512.97 55.55 1.04 55.55"/><path class="cls-2" d="M489.09,415.79h7.67v11h-8.14a28.24,28.24,0,0,1-5.23-.41,6,6,0,0,1-3.31-1.71,7.64,7.64,0,0,1-1.71-3.81,35.31,35.31,0,0,1-.49-6.63v-5.4a39,39,0,0,1,.44-6.51,7.48,7.48,0,0,1,1.65-3.83,6.18,6.18,0,0,1,3.37-1.8,27.31,27.31,0,0,1,5.58-.47h4.45l3.14,0,4.21,0.08,1-5.46c-2-.08-4-0.12-5.93-0.12h-6.45a28.38,28.38,0,0,0-9,1.19A11.59,11.59,0,0,0,472.2,401a35.77,35.77,0,0,0-.72,7.58v5.87a35.24,35.24,0,0,0,.76,7.76,12.26,12.26,0,0,0,2.7,5.55,12,12,0,0,0,5.32,3.34,27.16,27.16,0,0,0,8.55,1.13h10.06a3.48,3.48,0,0,0,3.08-1.33,7.3,7.3,0,0,0,.93-4.13V410.56H490.19Z" transform="translate(-338.61 -390.74)"/><polygon class="cls-2" points="191.11 0.12 185 0.12 185 41.5 210.99 41.5 212.09 36.04 191.11 36.04 191.11 0.12"/><rect class="cls-2" x="51.72" y="0.12" width="6.1" height="41.38"/><polygon class="cls-2" points="106.3 31.33 84.97 0.12 79.56 0.12 79.56 41.5 85.66 41.5 85.66 10.46 106.88 41.5 112.4 41.5 112.4 0.12 106.3 0.12 106.3 31.33"/><path class="cls-2" d="M788.45,426.89a23.12,23.12,0,0,1-5.43-.52,6.11,6.11,0,0,1-3.34-2,8.54,8.54,0,0,1-1.69-4,39.42,39.42,0,0,1-.46-6.72V409.4a46.46,46.46,0,0,1,.41-6.83,8.14,8.14,0,0,1,1.6-4,5.75,5.75,0,0,1,3.28-1.89,26.12,26.12,0,0,1,5.47-.47h2.38c0.85,0,1.71,0,2.58,0l2.53,0.06,2.09,0,1.1-5.46c-2.32-.08-4.32-0.12-6-0.12h-4.59a31.39,31.39,0,0,0-8.11.9,11.12,11.12,0,0,0-5.32,3.09,12.9,12.9,0,0,0-2.93,5.75,37.06,37.06,0,0,0-.9,8.93v4.24a40,40,0,0,0,.81,8.69,12.61,12.61,0,0,0,2.82,5.79,11.67,11.67,0,0,0,5.35,3.22,29.15,29.15,0,0,0,8.34,1h4q2.67,0,5.81-.12l1.11-5.46q-3.66.11-6.16,0.11h-4.71Z" transform="translate(-338.61 -390.74)"/><path class="cls-2" d="M732.59,390.86l-15.82,41.38h6.17l4.3-11.86h17l4.36,11.86h6.51l-15.81-41.38h-6.74Zm-3.49,24.29L735.73,397l6.63,18.14H729.1Z" transform="translate(-338.61 -390.74)"/><polygon class="cls-2" points="258.08 5.58 259.18 0.12 230.81 0.12 230.81 41.5 258.08 41.5 259.18 36.04 236.91 36.04 236.91 22.96 256.62 22.96 257.73 17.5 236.91 17.5 236.91 5.58 258.08 5.58"/><polygon class="cls-2" points="492.16 19.7 510.94 0.12 503.67 0.12 486.12 18.25 486.12 0.12 480.01 0.12 480.01 41.5 486.12 41.5 486.12 22.03 504.54 41.5 512.97 41.5 492.16 19.7"/><path class="cls-2" d="M696.87,411.81a12.24,12.24,0,0,0,2-7.41v-1.86q0-6.22-3.49-9t-10.75-2.73H669.05v41.38h6.1V416.08h9.24l9.3,16.16h7.09L690.68,415.5A10.32,10.32,0,0,0,696.87,411.81Zm-12.24-1.19h-9.47v-14.3h9.47a24.06,24.06,0,0,1,3.9.27,5.22,5.22,0,0,1,2.49,1,4.15,4.15,0,0,1,1.34,2.12,12.9,12.9,0,0,1,.41,3.58v0.29a12.86,12.86,0,0,1-.41,3.57,4.33,4.33,0,0,1-1.34,2.15,5.1,5.1,0,0,1-2.49,1A24.13,24.13,0,0,1,684.63,410.62Z" transform="translate(-338.61 -390.74)"/><polygon class="cls-2" points="290.36 41.5 296.5 41.5 296.5 9.9 290.36 17.52 290.36 41.5"/><polygon class="cls-2" points="275.83 5.58 310.24 5.58 311.34 0.12 276.93 0.12 275.83 5.58"/><path class="cls-2" d="M370.19,412.65a8.44,8.44,0,0,0-3-2.18,18.88,18.88,0,0,0-4.6-1.31l-8.08-1.34a13,13,0,0,1-2.9-.75,4.36,4.36,0,0,1-1.69-1.17,3.74,3.74,0,0,1-.79-1.69,11.67,11.67,0,0,1-.2-2.38,9.08,9.08,0,0,1,.35-2.71,3.36,3.36,0,0,1,1.31-1.74,6.31,6.31,0,0,1,2.61-.93,28,28,0,0,1,4.21-.26h5.52c1.94,0,4.28,0,7,.12l1-5.46-4.15-.09c-1.15,0-2.2,0-3.17,0h-5.76a28.61,28.61,0,0,0-7.12.75,12.35,12.35,0,0,0-4.65,2.18,8.17,8.17,0,0,0-2.56,3.43,12.2,12.2,0,0,0-.79,4.5v1.11a18.2,18.2,0,0,0,.41,4,7.4,7.4,0,0,0,1.48,3.08,8.52,8.52,0,0,0,3,2.21,17.82,17.82,0,0,0,4.8,1.36l7.84,1.28a16.3,16.3,0,0,1,3.08.81,4.39,4.39,0,0,1,1.77,1.19,3.85,3.85,0,0,1,.82,1.77,13.64,13.64,0,0,1,.2,2.55,9.23,9.23,0,0,1-.38,2.88,3.31,3.31,0,0,1-1.42,1.8,7.2,7.2,0,0,1-2.88.93,34.53,34.53,0,0,1-4.68.26h-5.7c-1,0-2.1,0-3.29,0l-4.1-.08-1,5.46q5.4,0.12,8.86.12h5.26a32.86,32.86,0,0,0,7.39-.7,12.32,12.32,0,0,0,4.76-2.09,7.59,7.59,0,0,0,2.56-3.49,14.45,14.45,0,0,0,.75-4.88v-1a17.23,17.23,0,0,0-.49-4.36A8.06,8.06,0,0,0,370.19,412.65Z" transform="translate(-338.61 -390.74)"/></svg>